<?xml version="1.0" encoding="UTF-8"?>
<svg xmlns="http://www.w3.org/2000/svg" width="454" height="426" viewBox="0 0 454 426">
  <defs>
    <style>.a,.b{fill:rgba(0,0,0,0);}.a{stroke:rgba(0,0,0,0);}.c{fill:rgba(45,51,57,0.95);}.d{fill:rgba(236,225,221,0.97);}.e{fill:rgba(195,68,77,0.99);}.f{stroke:none;}.g{fill:none;}</style>
  </defs>
  <g class="a">
    <rect class="f" width="453.074" height="425.848"></rect>
    <rect class="g" x="0.5" y="0.5" width="452.074" height="424.848"></rect>
  </g>
  <path class="b" d="M0,0H354.5l.5.5V15h-8V56.5l-.5.5H340V38H318V15H274V38H261V57H246v7h25V84h7V64.5l.5-.5H363V84h8V64h28.5l.5-.5V57h-8.5l-.5-.5V22H377V10H364V0h89.5l.5.5V426l-409-.5L55.5,419h81l1,1h15l1-1H438V347.5l2-4.5-2-.5v-13l1-3-1-1V317q-5.2,2.1-4-2.5-2-4.5-4-1l-.5,3.5H405l1-7.5h-1l-1.5,7.5q.8-13.8-5-21-2.6-.8-1.5,2.5l-1,1v8l4,9-47,.5V293.5l-4-1v-74l-1-1V210l24-.5L348.5,185h-118l-.5-1.5a22.719,22.719,0,0,0-11.5-8.5l-43-16-2.5-2.5-16-22,2-3-2-3,1-1v-9l-6.5-8.5-7.5-6.5q-2.7-3.8-1-12L139.5,87,135,83.5l-1-2-1-19L124.5,48l-7-4h-5l-2,1-2-1-10,3L92,53.5l-5,12-2,32a69.83,69.83,0,0,1-12,23v11q2.5,1.5,1,7l-4,8v6l4.5,5.5,8.5,2,3,9q7-1,10,3.5,1.3,6.1-1.5,5.5L91,181.5l-5,13-3,20-3,11v5l-2,6v5l-3,11v5l-3,11v5l-2,6v5l-5,22v5l-1,5L61.5,319q-6.3.7-8.5,5.5l-1,12L47.5,348l-.5-7.5,1-1v-11l1-1,2-26,1.5-1.5q6.4-.1,8.5-4.5l4-9,4-21-2-11L62.5,249l-6-1L50,253.5l-6,16-1,21,4.5,8.5,2.5,1.5-2,8L46.5,328,39,301.5q4-3.5,2-13A30.067,30.067,0,0,0,30.5,273l-13-8-7-2h-6L1,265l-.5,2ZM40,19l-5,1v1H49Zm-8,2v1h2Zm18,0v1h2ZM29,22l-2,1-1,2,5-2Zm24,0,2,2h1ZM23,26l-5,6,6-5Zm37,0,4,5V30ZM18,32l-2,3,2-1Zm48,0-1,2,2,1ZM39,34V50l1,1q-1,4,4,2l2-6,1-11Q45,32,39,34ZM15,37l-3,7q-1,10,2,17h1l-2-7q-1-10,2-14Zm54,0-1,3h1Zm1,3V55h1Q73,45,70,40Zm0,15-1,3h1ZM42,56l-1,1-2,1v5l6,1,2-3-1-3Q45,55,42,56ZM19,66l-1,2,2,1Zm3,4,2,3h1Zm4,3,1,2h1Zm33,1v1h3ZM29,75l2,2h2Zm24,0v1h2ZM34,77v1l5,1,11-1V77q-6-1-7,1Zm255,24-1,3h1Zm-1,4-1,5-3,1h3l1,4v-4l3-1,4,1h5q-5-3-12-2Zm-6,6v1h2Zm19,0v1h2Zm3,1,1,2h1Zm3,2,1,2h1Zm-32,1-2,3,3-2Zm14,1-1,3h1Zm22,1-1,2,2,1Zm-39,1-2,3,2-1Zm41,2-2,9,1,1,2-5Zm-43,1-3,4,1,2,2-4Zm-3,6-1,4h1Zm31,3,1,2h1Zm-32,1-1,10v2l2,4h1l-1-3,1-2-2-2Zm43,0q-2,3-8,1v1h8l1-1Zm-29,5-5,1v1h12Zm-8,2v1h2Zm25,8-1,8h1Zm-37,3-1,3h1Zm-1,3-1,3h1Zm13,0-1,2,3,1Zm-14,3-1,12h1Zm37,0-2,3,2-1Zm-18,2,1,2h2Zm14,1-5,2-2-1-4,1,4,1,7-1,1-1Zm92,72-2,2,4,11a19.127,19.127,0,0,0,11,8l-1-4V230l-1,14A33.376,33.376,0,0,0,383,230Zm24,10-4,5-2,7q-2,6,1,8l-1,3,3,3,4-13,1-10v-2Zm-10,11-1,3h1Zm-2,13,1,6,5,8,10,6-1,12-2,4,1,3,11-12,4-8,1-2-5,1-7,8-2-13-1,2-5-7-7-8Zm57,33a27.436,27.436,0,0,0-9,16l-1-9-2,19h1q-2-5,2-4a39.771,39.771,0,0,0,10-13v-8Zm-44,6-1,3h1Zm-1,3-1,3h1Zm33,17-1,3h1Z"></path>
  <path class="b" d="M145.5,154l16,21,43,10,1.5,1.5-27,23,28,.5v82.5l-.5.5H191v44H144v74.5l-1.5.5-8.5-4q-.9-6.6,2-10.5l-1-2h1l.5,1.5.5-3-2-.5v-7l1-1v-10l2-11,2-32,1-1,4-53,1-1v-10l1-1v-10l1-1v-10l1-1v-11l1-1,1-22,1-1v-14l-4-14-3-5q1.5-11.5-1-19Z"></path>
  <path class="b" d="M114.5,231l.5,16.5-1,1v58l-1,1v57l-1,1V391q5.6-2.2,4,3.5l-1,1V417l-55.5,1v-1h8l.5-1.5,2-4.5q4.9,1.6,3-4H68v-2.5l6-18,4-19,2-4,3-15,2-4Z"></path>
  <path class="b" d="M.5,275a71.748,71.748,0,0,0,20,28q4.5,4.5,15,3l2.5-1,4,11.5,4,18V364H18v13q6-2.2,4,4.5l1,1L24,407H18v4l4,1.5,1,4.5,20,.5-26,1,25,1q-2.7.7-2,5l.5,1.5H.5l-.5-.5Z"></path>
  <path class="b" d="M53.5,337l5.5,3.5L55,364H47v-5.5l3-14Z"></path>
  <path class="c" d="M39.5,19q17.1.4,24.5,10.5l7,14v11L69.5,58,69,55.5l1-1v-10Q67.3,31.1,57.5,25q-7.3-6.2-23-4Q23.6,24.1,18,32.5l-5,12v9Q15,64,21.5,70l12,7,9,1q1.5-2.5,7-1l8-4L63,75.5,61.5,75l-5-1-7,4-11,1Q24.8,76.8,18,67.5q-7.4-7.6-6-24Q14.8,32.3,22.5,26l6-4Z"></path>
  <path class="c" d="M108.5,44l3,1q1.2-2.3,6-1l8.5,5.5,6,10,2,9v13l4.5,5.5,2.5,1.5q4,3.5,2,13l7.5,8.5,5.5,4.5q3.5,4,2,13-1.5,3-3,0L137.5,102q-3.4.9-1.5-4.5l1-6.5-3,1.5-.5,2.5-.5-4.5,1-3q-2-3.5-4,1l-.5,3.5-.5-3.5,2-4v-15L129,58q-5,1.3-6.5-2l-2,4q-4.5.5-5-3l-2,4q-5.1.6-6.5-2.5l-.5-1.5-.5,9.5q3.9,4.1,3,13-2.7,1.8-1,8l2,2,1,29-5.5,7.5-2,1-3.5-2.5,1-19.5q-14.6,2.3-22,12.5-4.4,5.6-4,16l3,13L83,160q-8.4.2-12-5.5l-1-8q5-4,4-14l-1-1v-11a69.83,69.83,0,0,0,12-23l1-25,3-14L98.5,47Z"></path>
  <path class="c" d="M68.5,59l.5,1.5-2,4,.5,1.5L66,63.5Z"></path>
  <path class="c" d="M123.5,61l2.5.5-2.5.5Z"></path>
  <path class="c" d="M110.5,64l3.5.5L108.5,66V65Z"></path>
  <path class="c" d="M112,69q3-1,2,2Q111,72,112,69Z"></path>
  <path class="c" d="M298.5,89l-1,2Z"></path>
  <path class="c" d="M124.5,92l.5,4.5h-1Z"></path>
  <path class="c" d="M292.5,95,291,97.5l-2.5,6.5-.5-2.5Z"></path>
  <path class="c" d="M287.5,105l.5,4q17-.7,24,9.5l2,6-1,4-4.5,4.5h-8l-9.5-8.5-3-8h1q1.8,9.3,8.5,13.5,2.6,3.4,10,2l3.5-2.5,1-9-3.5-4.5-6-4-12-2-2.5,1-.5,4-.5-4-5.5,1-9.5,6-5,9.5-1,12q1.8,3.3,3.5-.5l11-3,10,3,5.5,5.5,1,9-3.5,4.5q-3.2,3.3-10,3-8.3-1.7-12.5-7.5L265.5,143q-9.3,6.7-8,24l-.5-11.5q2-9.5,9-14l-1-1v-9q2-11,9.5-16.5a19.777,19.777,0,0,1,12.5-5ZM275,138l-8,5,3,8q5,7,15,9,8-1,11-6l-1-9Q291,135,275,138Z"></path>
  <path class="c" d="M144.5,152l.5,4.5h-1Z"></path>
  <path class="c" d="M142.5,175q3.3-1.1,2.5,1.5l6,14,1,19-1,1v11l-1,1-1,22-1,1v10l-1,1-4,54-1,1v10l-2,11-2,32-2,11v10q-2.2,1.2-1,6l-1.5,1.5-1-1L112,391V365.5l1-1v-57l1-1v-58l1-1v-16h-1L74,386H55.5L51,384.5l4-17,2-18,7-30-1-2,2-6v-5l2-6v-5l3-11v-5l2-6v-5l3-11v-5l3-11v-5l2-6v-5l3-11,3-20,5-13,3.5-3.5,47-2Z"></path>
  <path class="c" d="M261.5,175l1,2Z"></path>
  <path class="c" d="M267.5,181l1,2Z"></path>
  <path class="c" d="M348.5,185,372,209.5l-24,.5v7.5l-.5.5h-114L212,191.5l3.5,2.5,18,15h136l-8.5-9.5Z"></path>
  <path class="c" d="M394.5,230l.5,16.5,1,2h-1l-1-2Z"></path>
  <path class="c" d="M249.5,235l3.5,2.5-2.5,3.5-3.5-2.5Z"></path>
  <path class="c" d="M282.5,235l3.5,2.5-2.5,3.5-3.5-2.5Z"></path>
  <path class="c" d="M391.5,245l1,2Z"></path>
  <path class="c" d="M396.5,251l4.5,10.5,10,16,1,14-1.5,2.5-.5-2.5,1-1v-9l-5-12-10-16Z"></path>
  <path class="c" d="M405.5,277l2,3Z"></path>
  <path class="c" d="M414.5,292l-1,2Z"></path>
  <path class="c" d="M197.5,293l135.5.5-74,.5v25.5l-1.5,1.5H240V294H197.5Z"></path>
  <path class="c" d="M408.5,299l.5,3.5L404.5,317l-.5-4.5Z"></path>
  <path class="c" d="M311.5,301l.5,107.5h-1Z"></path>
  <path class="c" d="M441.5,304l.5,12.5,1,1-2,2L437.5,331l-.5-1.5,3-7Z"></path>
  <path class="c" d="M449.5,304l-.5,1.5L443.5,316l.5-1.5Z"></path>
  <path class="c" d="M432.5,319l1.5,6.5v9h-1Z"></path>
  <path class="c" d="M434.5,347l-2,3-11,7v-1Z"></path>
  <path class="c" d="M411.5,354l1.5,2.5,2,14h-1Z"></path>
  <path class="c" d="M407.5,357l1,2Z"></path>
  <path class="c" d="M405,387h20v7.5l1,1,2,22.5H400.5l-.5-1.5Z"></path>
  <path class="c" d="M240,391h19v27h46.5v1L153,418.5l88-1-1-1Z"></path>
  <path class="c" d="M134,394q4.1-1.7,3,2.5l-1.5,2.5-.5-1.5,1-2h-2Z"></path>
  <path class="c" d="M129,396l2,.5-.5,2.5Z"></path>
  <path class="c" d="M91.5,417h23l.5,2-58-.5,33.5-.5Z"></path>
  <path class="c" d="M17.5,418l24.5.5-24.5.5Z"></path>
  <path class="d" d="M355,0h9V10h13V22h14V56.5l.5.5H400v7H371V84h-8V64.5l-.5-.5H278V84h-7V64H246.5l-.5-.5V57h15V38h13V15h44V38h22V57h7V15.5l.5-.5H355Z"></path>
  <path class="d" d="M122,57l4.5,2,1.5-.5,3,16v9q-4.7,5.1-3,15.5l2-.5v-7l2.5-4.5.5,3.5-1,1v8h1l2.5-7.5.5,5.5-5,14-2,12-7,22-9,17-7.5,7.5q-3.3,2.7-10,2L90,168.5l20-43,5-15v-5l-1-3,1-3-1.5.5q-5.7,1.8-3.5-4.5l2.5-1.5,2,1,1-2q-3.7.8-4.5-1.5l-3-5v-4q2.7-2.3,2-8-4.4-5.6-4-16l3.5,2.5q4.5,1,5.5-1.5l.5-1.5q.8,2.8,5,2Zm1,4-2,2h5Q127,60,123,61Zm-13,3-1,2,5-1Zm14,0-1,2,4-1Zm0,2v2q2,3,3,0Q128,64,124,66Zm-12,1-1,2,2-1-1,2q-1,2,2,1Q116,66,112,67Zm8,0v4l2,1Zm1,8v1h2Zm1,4-2,2q2,3,3,0T122,79Zm4,12-3,1q-2,5,2,7l1-3Zm-8,2q-1,4,2,3Q121,92,118,93Zm-1,6v2l2,1Q120,98,117,99Z"></path>
  <path class="d" d="M139.5,110l1.5.5-5.5,2.5v-1Z"></path>
  <path class="d" d="M88.5,121l4.5.5-4.5.5Z"></path>
  <path class="d" d="M83.5,122l3.5.5L80.5,124v-1Z"></path>
  <path class="d" d="M147.5,122l-2,3-3,1v-1Z"></path>
  <path class="d" d="M128.5,133l9.5.5-9.5.5Z"></path>
  <path class="d" d="M156.5,135q2.3-.7,1.5,1.5L175.5,159l43,16a22.719,22.719,0,0,1,11.5,8.5l-.5,1.5h-22l-2,1-42-10-5.5-4.5-13-18-1-4Z"></path>
  <path class="d" d="M94.5,137l1.5.5L92.5,139v-1Z"></path>
  <path class="d" d="M90.5,139l-1,2-5,3,2-3Z"></path>
  <path class="d" d="M139.5,154l-1,2-2.5-.5Z"></path>
  <path class="d" d="M131.5,156l3.5.5-3.5.5Z"></path>
  <path class="d" d="M125.5,157l4.5.5-4.5.5Z"></path>
  <path class="d" d="M136.5,169l-1,2-2.5-.5Z"></path>
  <path class="d" d="M125.5,172l3.5.5-3.5.5Z"></path>
  <path class="d" d="M120.5,173l3.5.5-3.5.5Z"></path>
  <path class="d" d="M103.5,174l14.5.5-14.5.5Z"></path>
  <path class="d" d="M56.5,248q7.3-.2,9.5,4.5l2,5,1,9-6,26L57.5,299,51,301.5l-4,46h1l4-11,1-12,4.5-4.5,5-2,.5,4.5-3,16L58.5,340l-5-3q-6.4,11-6.5,27h8v2.5l-4,18,3,1.5q1.3,5-2,6.5l1,3Q50.7,409.2,42.5,417h-19l-.5-1.5L20.5,411q-4.6,1.2-2.5-4h6V395.5l-1-1v-12L22,377l-4-.5V364H46V334.5l-4-18L38,305q-3.3,2.1-11.5,1A26.671,26.671,0,0,1,13,295.5l-13-21v-7L1,265l3.5-2h6q14.9,3.6,23.5,13.5l7,12v10q-2.6,1.4-2,6l5,12L46.5,328,48,308.5l2-8-4-3q-5.2-7.2-3-22l5-18,6.5-8.5Z"></path>
  <path class="d" d="M330,269h13v12.5l-1.5,1.5H330Z"></path>
  <path class="d" d="M352,317h48.5l1.5,1.5,1,2,.5,12.5.5-16,10,.5q-8.6,5.4-8.5,19.5l-1-2-.5,2.5,1.5,4.5,7.5-15.5,2-9.5h15v8.5l3.5,12.5,1.5-2.5-.5-1.5,1.5-.5-1-5q2.3-1.3,1-6l-1-5.5,3,.5v10l-1,3,1,1v11L424.5,353H422l-2,5q11.5-1.6,17.5-10l.5,69.5-1.5,1.5h-130v-1H352Zm55,25-1,3h1Zm-8,2-1,4,4,8,6,4,4,6,3,14a57.041,57.041,0,0,0,9-18q1-5-1-4l-5,7-2-1q0-8-3-12l-2-3-3,1,2,6v1Zm5,43-4,31h29l-2-9v-9l-2-8v-5Z"></path>
  <path class="d" d="M144,337h47v81H153.5l-1,2h-15l-1-1h-18l-3.5-1q-1.7-4.1,2.5-3l1,1h13l1,1q10.9-1.4,18,1l-1-2-5.5-3.5Z"></path>
  <path class="d" d="M326,390h12v13H326Z"></path>
  <path class="d" d="M63,401q3-1,2,2Q62,404,63,401Z"></path>
  <path class="d" d="M121,406l3,1.5-3,1.5Z"></path>
  <path class="d" d="M67.5,407q7.8-2.4,5.5,4-3.7-1.5-3,1.5L68,417l-11.5,1q-5,6-14,8v-1L66,409.5Z"></path>
  <path class="e" d="M39,34q6.1-1.7,8,1.5l-1,11L43.5,53q-4.8,1.7-3.5-2.5l-1-1Z"></path>
  <path class="e" d="M41.5,56q3.8-.7,4.5,1.5l1,3L44.5,64,39,63V57.5l1.5-.5Z"></path>
  <path class="e" d="M115.5,57l2,3Z"></path>
  <path class="e" d="M122.5,61l3.5,1.5-4.5.5Z"></path>
  <path class="e" d="M129.5,62l.5,3.5h-1Z"></path>
  <path class="e" d="M109.5,64l2.5,1.5-1.5.5Z"></path>
  <path class="e" d="M123.5,64l1.5.5v2l.5,1.5,1-2,.5,1.5q-1.5,3-3,0,.8-2.2-1.5-1.5Z"></path>
  <path class="e" d="M118.5,65l5.5,9.5L120.5,76V75l2.5-.5-5-8Z"></path>
  <path class="e" d="M111.5,67l.5,2-2-.5Z"></path>
  <path class="e" d="M130.5,69l.5,4.5h-1Z"></path>
  <path class="e" d="M109.5,74l.5,4.5h-1Z"></path>
  <path class="e" d="M121.5,79q2.3-.7,1.5,1.5-1.5,3-3,0Z"></path>
  <path class="e" d="M132.5,86l1.5,3.5h-1l-.5-2.5-2,4L129,87.5Q130.8,89.1,132.5,86Z"></path>
  <path class="e" d="M108.5,87l1,2Z"></path>
  <path class="e" d="M128.5,89q2.6,3.6,1.5,10l-2-.5Z"></path>
  <path class="e" d="M110.5,90l2,3,3.5.5L113.5,95l-2-1-1.5.5Z"></path>
  <path class="e" d="M125.5,91l.5,4.5h-1Z"></path>
  <path class="e" d="M132.5,91l1,4,2-4q2.8-.6,1.5,5.5h-1l-.5-4.5-3,8-.5-1.5,1-2Q130.6,95.1,132.5,91Z"></path>
  <path class="e" d="M123.5,92l1.5,6.5-2-1Z"></path>
  <path class="e" d="M118,93q3.3-1.1,2,3Q116.7,97.1,118,93Z"></path>
  <path class="e" d="M135.5,98l.5,4,4,2.5,19,28a65.491,65.491,0,0,0-15,18v2l1,22.5-3.5,1h-17l-1,1L96,178v-6h4.5q8.6-2.4,12.5-9.5l9-17ZM129,133v1h9Zm8,22v1h2Zm-5,1v1h3Zm-6,1v1h4Zm8,13v1h2Zm-8,2v1h3Zm-5,1v1h3Zm-17,1v1h14Z"></path>
  <path class="e" d="M114.5,99l.5,2.5-1,3q2.2,1.3,1,6l-9,25A139.934,139.934,0,0,0,90,169H86v-1.5l-10-28-1-12q2.4-11.1,10.5-16.5l15.5-6-1,19.5,3.5,2.5,6.5-5.5q2.4-5.1,1-14l-1-1V100ZM89,121v1h4Zm-5,1v1h3Zm-3,1v1h2Z"></path>
  <path class="e" d="M117,99q3-1.2,2,2.5l-2-1Z"></path>
  <path class="e" d="M207.5,185h140L361,198.5l9,10-136.5.5-18-15,.5,1.5L233.5,218H349v74.5l4,1v23l-1,1V418H259.5l-.5-.5V391H240v25.5l1,1-50,.5V293.5q.1-1.1,5.5-.5l1,1H240v27h17.5l1.5-1.5V294l74-.5L207,293V210H179.5l6-7ZM250,235l-3,4,4,2,2-3Zm33,0-3,4,4,2,2-3Zm47,34v14h12l1-1V269Zm-18,32-1,108h1Zm14,89v13h12V390Z"></path>
  <path class="e" d="M382.5,230q10.4,7.6,13.5,21a19.528,19.528,0,0,1-11-8.5l-4-11Z"></path>
  <path class="e" d="M406.5,240l2.5.5v2l-2,14-3.5,7.5q-3.6-3.9-2.5-12.5l2-7Z"></path>
  <path class="e" d="M395,264h2.5l7.5,7.5,6,10V284l-10-6-5-8.5Z"></path>
  <path class="e" d="M421.5,281l3.5.5A44.18,44.18,0,0,1,409.5,301l-.5-3.5q2.8-10.2,10.5-15.5Z"></path>
  <path class="e" d="M397,296l3,1.5,3,9,1,26h-1v-12q-8-6-7-21Z"></path>
  <path class="e" d="M451.5,297l1.5.5v8A32.152,32.152,0,0,1,442.5,319q-2.7-1.2-.5-2.5l1-6Z"></path>
  <path class="e" d="M431.5,312l3.5,5.5,1,10-1,5h1l.5-1.5.5,1.5-3,1.5-1.5-15-.5,9.5,1,6.5,2,.5-2.5,3.5.5-1.5-3-12v-12Z"></path>
  <path class="e" d="M414.5,317l.5,1.5-2,8-7,15,1,3h-1l-2-9h1l.5,1.5Q405.4,322.4,414.5,317Z"></path>
  <path class="e" d="M431.5,340l-1,2Z"></path>
  <path class="e" d="M429.5,343l-1,2Z"></path>
  <path class="e" d="M437.5,343q3.3-1.1,2.5,1.5l-7.5,8.5-9,4-2-1,1,2q3-.9,1.5,3.5a52.281,52.281,0,0,1-9.5,18.5L412,365.5l-4.5-5.5-5.5-4.5q-3.7-3.8-4-11l8,7,3.5,5.5.5-1.5-2-6,2.5-.5,2.5,2.5q3.2,4.3,3,12l1.5,1.5.5-1.5-.5-1.5,1.5.5-1-2q2,1.7,4-2l-1.5-.5-1.5.5,3-5.5h2.5Zm-8.5,8-1,2,2-1Zm-3,2-1,2,2-1Zm-13,3-1,7,2,8h1Z"></path>
  <path class="e" d="M427.5,346l-1,2Z"></path>
  <path class="e" d="M425.5,349l-2,3Z"></path>
  <path class="e" d="M52.5,385l3,1,18.5.5-6,20L63.5,412l-22,14q-2.2-.7-1.5-4.5l11-18,2-10q-2.5-1.5,1-3,1.9-5.4-1.5-4.5ZM63,401q-1,3,2,2Q66,400,63,401Z"></path>
  <path class="e" d="M116,391l6.5,1h10l1,1,1.5-.5-1,3q2.3,1.3,1,6l-1,6.5a41.824,41.824,0,0,1,17,9.5l-3.5.5-1-1-28-1-3.5-1V395.5Zm13,5v2l2-1Zm-8,10v3l3-1Z"></path>
  <path class="e" d="M425.5,392l.5,2.5h-1Z"></path>
  <path class="e" d="M115.5,418l2.5.5-2.5.5Z"></path>
</svg>
